<?xml version="1.0" encoding="utf-8"?>
<!-- Svg Vector Icons : http://www.onlinewebfonts.com/icon -->
<!DOCTYPE svg PUBLIC "-//W3C//DTD SVG 1.1//EN" "http://www.w3.org/Graphics/SVG/1.1/DTD/svg11.dtd">
<svg version="1.1" xmlns="http://www.w3.org/2000/svg" xmlns:xlink="http://www.w3.org/1999/xlink" x="0px" y="0px" viewBox="0 0 1000 1000" enable-background="new 0 0 1000 1000" xml:space="preserve">
<metadata> Svg Vector Icons : http://www.onlinewebfonts.com/icon </metadata>
<g><path d="M745,761.3c-4.1,0-8.3-1.6-11.5-4.8L570.1,593.2c-6.4-6.4-6.4-16.7,0-23.1c6.4-6.4,16.7-6.4,23.1,0l163.3,163.3c6.4,6.4,6.4,16.7,0,23.1C753.4,759.7,749.2,761.3,745,761.3z M255,761.3c-4.2,0-8.3-1.6-11.6-4.8c-6.4-6.4-6.4-16.7,0-23.1L476.9,500L243.4,266.6c-6.4-6.4-6.4-16.7,0-23.1c6.4-6.4,16.7-6.4,23.1,0L500,476.9l233.4-233.4c6.4-6.4,16.7-6.4,23.1,0c6.4,6.4,6.4,16.7,0,23.1l-490,490C263.4,759.7,259.2,761.3,255,761.3z"/><path d="M626.8,26.7C500.4-7.1,368.4,10.2,255,75.6C141.7,141.1,60.6,246.8,26.8,373.2c-70,261,85.5,530.1,346.4,600.1c42.2,11.3,84.9,16.9,127.3,16.9c88.8,0,176.3-24.6,254.8-72.5c11.5-7.1,15.2-22.1,8.1-33.7c-7.1-11.6-22.1-15.2-33.6-8.1c-104.3,63.7-226.4,81.5-343.8,50C151,863,11.1,620.7,74.1,385.9C104.5,272.1,177.5,177,279.5,118.1c102-58.9,220.8-74.5,334.6-44.1C727.9,104.6,823,177.5,881.9,279.6c58.9,102,74.5,220.9,44.1,334.6c-10.8,40.2-27.5,79-49.7,115.4c-7,11.5-3.4,26.6,8.2,33.6c11.6,7,26.6,3.4,33.7-8.2c24.6-40.4,43.2-83.6,55.1-128.2C1043.2,365.8,887.8,96.7,626.8,26.7z"/></g>
</svg>